<?xml version="1.0" encoding="UTF-8"?>
<svg width="391px" height="55px" viewBox="0 0 391 55" version="1.1" xmlns="http://www.w3.org/2000/svg" xmlns:xlink="http://www.w3.org/1999/xlink">
    <title>Group 21</title>
    <g id="Page-1" stroke="none" stroke-width="1" fill="none" fill-rule="evenodd">
        <g id="Group-21" transform="translate(0.680000, 0.400000)" fill="#000000" fill-rule="nonzero">
            <path d="M60.12,0.032 L79.776,53.6 L58.392,53.6 L55.44,44.96 L25.56,44.96 L20.376,53.6 L0,53.6 L33.408,0.032 L60.12,0.032 Z M44.712,13.064 L33.552,31.568 L50.976,31.568 L44.712,13.064 Z" id="Combined-Shape"></path>
            <path d="M99.324,53.6 L102.204,35.456 C102.636,32.6240004 103.788,30.3679996 105.66,28.688 C107.532,27.0080004 110.028,26.168 113.148,26.168 C116.268,26.168 118.452,26.9720004 119.7,28.58 C120.948,30.1879996 121.356,32.36 120.924,35.096 L117.972,53.6 L137.124,53.6 L140.796,30.272 C140.94,28.7839996 140.964,27.284 140.868,25.772 C140.772,24.26 140.304,22.7960004 139.464,21.38 C138.624,19.9639996 137.58,18.716 136.332,17.636 C135.084,16.556 133.404,15.6799996 131.292,15.008 C129.18,14.3360004 126.756,14 124.02,14 L123.588,14 C120.996,14 118.512,14.3119996 116.136,14.936 C113.76,15.5600004 111.732,16.3880004 110.052,17.42 C108.372,18.4519996 107.136,19.2799996 106.344,19.904 C105.552,20.5280004 104.844,21.1519996 104.22,21.776 L105.372,14.864 L86.364,14.864 L80.244,53.6 L99.324,53.6 Z" id="Path"></path>
            <polygon id="Path" points="167.4 11.624 169.272 0.032 150.192 0.032 148.32 11.624"></polygon>
            <polygon id="Path" points="160.776 53.6 166.896 14.864 147.816 14.864 141.696 53.6"></polygon>
            <path d="M184.572,53.6 L187.524,34.952 C187.956,32.4080004 188.988,30.308 190.62,28.652 C192.252,26.996 194.508,26.168 197.388,26.168 C200.076,26.168 201.948,26.9720004 203.004,28.58 C204.06,30.1879996 204.42,32.1920004 204.084,34.592 L201.06,53.6 L220.212,53.6 L223.164,35.024 C223.596,32.432 224.616,30.308 226.224,28.652 C227.832,26.996 230.076,26.168 232.956,26.168 C235.692,26.168 237.576,26.9839996 238.608,28.616 C239.64,30.2480004 239.988,32.288 239.652,34.736 L236.628,53.6 L255.78,53.6 L259.524,29.984 C259.62,28.688 259.632,27.32 259.56,25.88 C259.488,24.44 259.056,23.0120004 258.264,21.596 C257.472,20.1799996 256.476,18.9080004 255.276,17.78 C254.076,16.6519996 252.408,15.7400004 250.272,15.044 C248.136,14.3479996 245.676,14 242.892,14 L242.46,14 C235.02,14 228.516,16.6400004 222.948,21.92 C220.548,16.6400004 215.628,14 208.188,14 L207.756,14 C200.748,14 194.652,16.592 189.468,21.776 L190.62,14.864 L171.612,14.864 L165.492,53.6 L184.572,53.6 Z" id="Path"></path>
            <path d="M298.576,8.784 C302.896,8.784 306.7,9.144 309.988,9.864 C313.276,10.584 315.892,11.4960004 317.836,12.6 C319.78,13.7039996 321.364,15.0600004 322.588,16.668 C323.812,18.2759996 324.64,19.8480004 325.072,21.384 C325.504,22.9199996 325.72,24.5759996 325.72,26.352 C325.72,27.648 325.624,28.9679996 325.432,30.312 C325.144,32.2320004 324.772,33.9359996 324.316,35.424 C323.86,36.9120004 322.96,38.6040004 321.616,40.5 C320.272,42.3959996 318.58,43.9680004 316.54,45.216 C314.5,46.4639996 311.656,47.5320004 308.008,48.42 C304.36,49.3079996 300.112,49.752 295.264,49.752 L295.264,49.752 L290.08,49.752 C285.856,49.752 282.1,49.3680004 278.812,48.6 C275.524,47.8319996 272.896,46.8480004 270.928,45.648 C268.96,44.4479996 267.352,43.02 266.104,41.364 C264.856,39.708 264.004,38.088 263.548,36.504 C263.092,34.92 262.864,33.264 262.864,31.536 C262.864,29.9039996 262.936,28.7040004 263.08,27.936 C263.32,26.4000004 263.656,24.9600004 264.088,23.616 C264.52,22.2719996 265.168,20.8319996 266.032,19.296 C266.896,17.7600004 268.072,16.4039996 269.56,15.228 C271.048,14.0520004 272.836,12.96 274.924,11.952 C277.012,10.944 279.616,10.1640004 282.736,9.612 C285.856,9.05999963 289.384,8.784 293.32,8.784 L293.32,8.784 Z M295.264,19.728 L295.192,19.728 C292.696,19.728 290.56,20.052 288.784,20.7 C287.008,21.348 285.676,22.2240004 284.788,23.328 C283.9,24.4319996 283.276,25.56 282.916,26.712 C282.556,27.864 282.376,29.1119996 282.376,30.456 C282.376,32.7119996 283.228,34.6440004 284.932,36.252 C286.636,37.8599996 289.408,38.664 293.248,38.664 L293.248,38.664 L293.32,38.664 C297.976,38.664 301.3,37.5600004 303.292,35.352 C305.284,33.1439996 306.28,30.5519996 306.28,27.576 C306.28,25.3679996 305.416,23.508 303.688,21.996 C301.96,20.484 299.152,19.728 295.264,19.728 L295.264,19.728 Z" id="Combined-Shape"></path>
            <path d="M347.692,39.6 L350.572,21.456 C351.004,18.6240004 352.156,16.3679996 354.028,14.688 C355.9,13.0080004 358.396,12.168 361.516,12.168 C364.636,12.168 366.82,12.9720004 368.068,14.58 C369.316,16.1879996 369.724,18.36 369.292,21.096 L366.34,39.6 L385.492,39.6 L389.164,16.272 C389.308,14.7839996 389.332,13.284 389.236,11.772 C389.14,10.26 388.672,8.79600037 387.832,7.38 C386.992,5.96399963 385.948,4.716 384.7,3.636 C383.452,2.556 381.772,1.67999963 379.66,1.008 C377.548,0.336000366 375.124,2.27373675e-13 372.388,2.27373675e-13 L371.956,2.27373675e-13 C369.364,2.27373675e-13 366.88,0.311999634 364.504,0.936 C362.128,1.56000037 360.1,2.38800037 358.42,3.42 C356.74,4.45199963 355.504,5.27999963 354.712,5.904 C353.92,6.52800037 353.212,7.15199963 352.588,7.776 L353.74,0.864 L334.732,0.864 L328.612,39.6 L347.692,39.6 Z" id="Path"></path>
        </g>
    </g>
</svg>